<svg xmlns="http://www.w3.org/2000/svg" xmlns:xlink="http://www.w3.org/1999/xlink" width="148" height="148" viewBox="0 0 148 148">
  <defs>
    <clipPath id="clip-path">
      <rect id="Rectangle_326" data-name="Rectangle 326" width="148" height="148" transform="translate(14333 -436)" fill="#fff" stroke="#707070" stroke-width="1"/>
    </clipPath>
  </defs>
  <g id="Bankera_files" data-name="Bankera files" transform="translate(-14333 436)" clip-path="url(#clip-path)">
    <g id="Group_11382" data-name="Group 11382" transform="translate(14340.875 -431.712)">
      <g id="Group_11379" data-name="Group 11379" transform="translate(0 0)">
        <path id="Rectangle_322" data-name="Rectangle 322" d="M-39.608-180.9h97c2.436,0,3.742,2.494,2.917,5.57L43.144-111.282c-.825,3.076-3.465,5.57-5.9,5.57h-97c-2.434,0-3.74-2.494-2.917-5.57l17.163-64.049C-44.685-178.407-42.043-180.9-39.608-180.9Z" transform="translate(71.698 244.024)" fill="#007c7c"/>
        <g id="Group_11377" data-name="Group 11377" transform="translate(10.893 0)">
          <rect id="Rectangle_323" data-name="Rectangle 323" width="72.808" height="90.184" rx="3.455" transform="translate(42.38 0) rotate(28.03)" fill="#dfe2e6" opacity="0.5"/>
          <rect id="Rectangle_324" data-name="Rectangle 324" width="55.341" height="5.209" rx="2.604" transform="translate(41.889 19.508) rotate(28.03)" fill="#707070"/>
          <rect id="Rectangle_325" data-name="Rectangle 325" width="55.341" height="5.209" rx="2.604" transform="translate(35.463 31.577) rotate(28.03)" fill="#707070"/>
        </g>
        <path id="Path_21668" data-name="Path 21668" d="M46.688-173.3v69.176c0,3.326-2.124,6.014-4.755,6.014H-62.835c-2.631,0-4.755-2.687-4.755-6.014V-173.3c0-3.307,2.124-6.014,4.755-6.014h7.987l4.379-6.784a7.5,7.5,0,0,1,6.314-3.458h26.2a7.548,7.548,0,0,1,5.45,2.33l7.536,7.912H41.933C44.564-179.314,46.688-176.608,46.688-173.3Z" transform="translate(67.59 237.536)" fill="#18bdbd"/>
      </g>
      <g id="BANKERA_B_Green" data-name="BANKERA B Green" transform="translate(40.364 73.439)">
        <path id="Path_21630" data-name="Path 21630" d="M831.263,215.69l2.382-5.216c0-.168,0-.168.17-.168v.168l1.871,2.692c0,.168,0,.168-.17.168l-4.083,2.524h-.17ZM840.62,234.7l-1.7-5.216v-.168h.17l1.7.336h0v5.216C840.62,234.871,840.62,234.871,840.62,234.7Zm0-5.552-1.531-.168a.165.165,0,0,0-.17-.168h0l1.7-3.7c0-.168,0-.168.17-.168v4.206Zm-9.357,15.984,4.593-2.356h.17l4.253,2.86v.168a.165.165,0,0,1-.17.168l-8.676-.5a.165.165,0,0,1-.17-.168Zm-.17-1.346v-6.057h.17l4.083,1.178c.17,0,.17,0,.17.168h0l-4.253,4.879h0C831.093,243.956,831.093,243.956,831.093,243.788Zm0-6.562v-.5h0l2.041-4.543c0-.168,0-.168.17-.168v.168l2.211,6.057v.168s0,.168-.17,0l-4.083-1.01Zm0-2.187V230.5h.17l1.531,1.009v.168l-1.361,3.365h-.34Zm0-5.216v-.841l4.083-3.2h.17v.168L833.134,231a.165.165,0,0,1-.17.168h0l-1.871-1.178Zm0-1.683V227.8h0l2.212-5.384h.17l2.212,2.187h0v.168l-4.423,3.533h-.17Zm0-2.187v-7.235a.165.165,0,0,1,.17-.168l.17.168,1.531,3.2v.168l-1.531,3.87-.17.168A.165.165,0,0,1,831.093,225.954Zm.17-8.749,5.274,1.514.17.168-.17.168-3.062,2.524h-.17v-.168l-2.212-4.038a.165.165,0,0,1,.17-.168Zm-.17-2.86V209.8h.17l2.042.168h0v.168l-1.871,4.206-.17.168A.165.165,0,0,1,831.093,214.344Zm0-5.216v-.673l2.382-2.86h.17v.168l-.17,3.533v.168h0l-2.212-.168C831.093,209.3,831.093,209.3,831.093,209.128Zm0-1.683v-3.029h.17l2.042.337a.166.166,0,0,0,.17.168.165.165,0,0,1-.17.168l-2.042,2.524h0C831.093,207.614,831.093,207.614,831.093,207.446Zm0-3.7v-1.01h0l1.361-1.514.17-.168a.166.166,0,0,0,.17.168l.851,3.029a.165.165,0,0,1-.17.168h0l-2.212-.5C831.093,203.913,831.093,203.913,831.093,203.744Zm0-2.019V198.36l.17-.168a.165.165,0,0,0,.17.168l1.021,2.019v.168l-1.191,1.178v.168A.165.165,0,0,1,831.093,201.725Zm0-4.711V195.5h7.145a.166.166,0,0,1,.17.168v.168l-5.444,4.206h-.17l-1.7-3.028Zm8.166-1.178.851,4.206v.168h-6.464v-.168l5.274-4.206h.34Zm.51-.336h4.593v.168l-3.573,4.038a.166.166,0,0,1-.17.168l-.17-.168-.851-4.038h0C839.6,195.5,839.6,195.5,839.769,195.5Zm-.34,5.384-5.274,3.365c0,.168,0,.168-.17,0h0l-.851-3.365v-.168h6.294Zm12.078-4.543-5.1,2.86h-.17l-.851-3.533V195.5h.17l5.784.673h.17Zm5.274,2.692-5.954,1.01c0,.168,0,0-.17,0v-.168l1.7-3.365a.166.166,0,0,1,.17-.168h.17l4.083,2.356v.336Zm3.4,4.879-3.573,3.533h-.17a.165.165,0,0,1-.17-.168l1.531-7.4h.17l2.212,3.87Zm.68,5.384-1.191,3.87a.166.166,0,0,1-.17.168h-.17l-3.062-4.711c-.17-.168-.17-.168,0-.337l3.913-3.7v-.168a.165.165,0,0,1,.17.168l.51,4.711Zm-4.933,8.076-1.191-3.533v-.168h.17l3.913.336a.165.165,0,0,1,.17.168v.168l-2.892,3.029s0,.168-.17,0Zm-.851-.168-5.1-4.038V213h.17l4.083.673h0l1.191,3.365a.165.165,0,0,1-.17.168ZM854.74,213l1.191-3.87h.17l2.892,4.375v.168h-.17l-3.913-.336a.166.166,0,0,0-.17-.168Zm-.51-.673-2.041-5.384v-.168h.17l3.232,1.682v.168l-1.021,3.7-.17.168A.166.166,0,0,1,854.229,212.325Zm1.361-4.375-3.573-1.851h0v-.168l4.933-5.72h.17a.166.166,0,0,1,.17.168l-1.531,7.571h-.17Zm-5.444.337-.51-1.851h0l.17-.168H851c.17,0,.17,0,.17.168v.168l-.851,1.683v.168A.165.165,0,0,1,850.146,208.287Zm1.531-1.346L854.059,213h0l-.17.168-4.593-.673-.17-.168v-.168l1.191-2.692,1.191-2.524Zm0-1.514-1.191-4.711h0c0-.168,0-.168.17-.168l6.124-1.178a.166.166,0,0,1,.17.168v.168l-5.1,5.72h-.17Zm-.51.5h-1.531v-.168l.51-3.533h.34l.851,3.533v.168Zm-3.743-2.355-.851-3.533h0c0-.168,0-.168.17-.168l2.892.673v.168h0l-2.042,2.86c0,.168,0,.168-.17.168Zm2.382-1.851-.51,3.7a.165.165,0,0,1-.17.168h-.17l-1.191-1.178c-.17,0-.17-.168,0-.168l1.7-2.524c.17,0,.17-.168.17,0Zm.17-1.514-2.892-.673h0v-.168l4.423-2.692a.166.166,0,0,1,.17.168v.168l-1.531,3.2ZM845.043,196l.851,3.365h0a.166.166,0,0,0-.17.168l-4.253.5h-.17v-.168l3.4-4.038h.17Zm-4.253,7.4-5.444.841h-.17c0-.168,0-.168.17-.168l4.763-3.2h.17a.165.165,0,0,0,.17.168l.34,2.187v.168Zm.34-2.187,2.722,2.019h.17a.166.166,0,0,1-.17.168H841.47c-.17,0-.17,0-.17-.168l-.511-1.851a.166.166,0,0,1,.17-.168Zm-.17,4.038V213h-.34l-1.7-4.038h.17l1.531-3.7s.17-.168.17,0Zm4.423-1.851.681-2.524h.17l.851,3.029h-.17v.168l-1.531-.5S845.213,203.408,845.383,203.408Zm-4.083-2.86,4.423-.673h0l.17.168-1.021,3.029v.168h-.17l-3.4-2.356a.166.166,0,0,0-.17-.168Zm7.655,12.282,5.1,4.038v.168c0,.168,0,.168-.17.168l-7.145-2.524h0v-.168l1.871-1.682Zm-2.892,2.187,1.021,3.533a.165.165,0,0,1-.17.168h-.17l-4.763-3.533v-.168a.166.166,0,0,1,.17-.168h3.743A.166.166,0,0,1,846.063,215.017Zm.68,0,7.655,2.692.17.168c0,.168,0,.168-.17.168l-6.635,1.178a.165.165,0,0,1-.17-.168l-1.021-3.87h0A.166.166,0,0,1,846.744,215.017Zm9.016,3.365.85,3.7a.165.165,0,0,1-.17.168h0l-7.655-2.524-.17-.168a.166.166,0,0,1,.17-.168l6.8-1.178Zm3.913,1.682-2.382,2.019h-.17c-.17,0-.17,0-.17-.168l-.68-3.2v-.168h.17l3.232,1.178.17.168A.165.165,0,0,1,859.673,220.065Zm3.232,3.533-5.274-1.01v-.336l2.552-2.019h.17l2.552,3.2c.17,0,.17,0,.17.168Zm2.211,5.721-2.552.841h-.17v-.168l1.191-4.711.17-.168.17.168,1.191,3.87Zm-.851,6.73-2.892-.337a.165.165,0,0,0-.17-.168l.17-.168,3.4-4.711h.17c.17,0,.17,0,.17.168l-.68,5.216h-.17Zm-3.062,4.374-.17-4.206v-.168h.17l2.892.5h0v.168l-2.552,3.7a.165.165,0,0,0-.17.168Zm-5.954,3.7-.34-4.711v-.168h.17l5.274,2.019v.337l-4.934,2.524Zm-5.1,1.178-4.423-2.86c-.17,0-.17,0-.17-.168h.17l8,2.187h0v.168l-3.4.673Zm-8.506.337,2.042-3.7v-.168h.17l5.274,3.365a.168.168,0,1,1,0,.336l-7.315.5c-.17,0-.17,0-.17-.168Zm4.593-26.584-8.166-.5h-.17v-.168l3.062-3.365h.34l5.1,3.87v.168Zm-8.846-1.01-1.021-4.038v-.168s.17-.168.17,0l3.913.841a.165.165,0,0,1,.17.168v.168l-3.062,3.029c0,.168,0,.168-.17.168Zm3.232,5.048-3.913,1.346c-.17,0-.17,0-.17-.168h0l.851-4.711v-.168h.17l3.062,3.533v.168Zm-2.552-4.038,8.336.5a.166.166,0,0,1,.17.168h-.17l-5.1,3.2h-.17l-3.232-3.7v-.168Zm9.357.841,1.021,2.86v.168a.165.165,0,0,0-.17.168h-5.784a.165.165,0,0,1-.17-.168v-.168l4.933-2.86c0-.168,0-.168.17-.168Zm.681,0,6.975,2.355c.17,0,.17,0,.17.168h-.17l-6.124.5h0l-1.021-2.86V219.9Zm7.826,3.2-3.232,2.524h-.17l-2.892-2.019v-.168h.17l5.954-.5h.17Zm-2.552,3.365,6.635,3.365v.168h-.17l-5.274-.673a.166.166,0,0,1-.17-.168l-1.191-2.524v-.168Zm1.361,3.7,4.933,4.879v.168h-.17l-5.614-1.346a.166.166,0,0,1-.17-.168l.851-3.533v-.168A.166.166,0,0,1,854.74,230.16Zm-1.361,4.375.851,3.7c.17,0,0,0,0,.168h-.17l-3.4-2.019h0v-.168l2.552-1.682Zm-3.232,2.019,2.552,1.514a.165.165,0,0,1,.17.168c-.17,0-.17.168-.17,0l-5.274-.841h0v-.168l2.552-.673Zm-4.933,1.178-1.531,3.029h-.17l-1.871-3.2v-.168c0-.168,0-.168.17-.168l3.232.337h.17Zm11.738-14.638,4.253,6.562v.168h-.17l-7.825-3.87-.17-.168h.17l3.573-2.86h0A.166.166,0,0,1,856.951,223.093Zm.68-.168,5.784,1.178v.168h0l-1.361,5.552h-.17l-4.423-6.73v-.168Zm4.083,7.908-1.021,4.206c0,.168,0,.168-.17.168h0l-5.274-5.216v-.168h.17l6.124.841a.165.165,0,0,1,.17.168Zm2.892-.673-3.062,4.206h-.17V234.2l.851-3.365v-.168l2.382-.673h0C864.777,230.16,864.777,230.16,864.606,230.16Zm-10.547,4.206,5.784,1.346.17.168a.165.165,0,0,1-.17.168l-4.763,2.524h-.17l-.17-.168-.851-3.87v-.168Zm6.464,2.019.34,4.543v.168h-.17l-5.1-2.187h-.17c0-.168,0-.168.17-.168l4.763-2.524h.17Zm-7.485,2.692-8.676,2.019h-.17v-.168l1.531-3.2a.166.166,0,0,1,.17-.168l7.145,1.178v.337Zm-21.605-22.546,4.253-2.692h.17v.168l1.021,4.206v.168h-.17l-5.274-1.683h-.17C831.263,216.531,831.263,216.531,831.433,216.531Zm4.423,7.571-2.212-2.019v-.168h0l3.062-2.524h.17v.168l-.851,4.543h-.17Zm4.763-.336-1.871,4.543-.17.168-.17-.168-1.871-3.365h0c0-.168,0-.168.17-.168l3.743-1.178h.17Zm-4.253,1.683,1.871,3.365v.168h0l-4.593,2.355h-.17v-.168l2.552-5.72a.166.166,0,0,0,.17-.168Zm0,12.787,2.211-8.076h.17l2.041,6.562c0,.168,0,.168-.17.168l-4.083,1.514h-.17Zm3.743-.336-3.573,3.87h-.17a.165.165,0,0,1-.17-.168v-2.524l.17-.168,3.573-1.178c.17-.168.17,0,.17,0C840.28,237.731,840.28,237.9,840.109,237.9Zm3.232,3.7-1.7,3.2s-.17.168-.17,0h-.17v-6.562a.165.165,0,0,1,.17-.168v.168l1.871,3.2Zm-2.722,3.87-4.083-2.86a.165.165,0,0,1-.17-.168h0l4.253-4.543h.17v.168l.17,7.235c0,.168,0,.168-.17.168Zm-4.763-5.721v2.524c0,.168,0,.168-.17.168l-4.083,2.019c0,.168,0,0-.17,0v-.168l4.083-4.543a.166.166,0,0,1,.17-.168Zm18.713,4.543-9.7-2.692v-.168h0l9.527-2.187h.17l.17,4.879v.168Zm-20.755-12.451,4.253-2.187h.17v.168l-2.212,7.908v.168a.165.165,0,0,1-.17-.168l-2.042-5.72C833.645,231.842,833.815,231.842,833.815,231.842Zm6.8-27.762-1.871,4.374h-.17l-3.913-3.365v-.336l5.784-.841h.17Zm-5.614,4.374-.851.673h0a.165.165,0,0,1-.17-.168l.17-2.355v-.168c.17,0,.17,0,.17.168l.68,1.683Zm-.17-2.692,2.892,2.692v.168h-.17l-2.041-.337h0l-.851-2.356c-.17,0,0-.168,0-.168Zm3.4,3.533-1.871,3.2h-.34l-.51-3.533v-.168h.17l2.552.336v.168Zm2.211,5.048-3.913-1.009h0c-.17-.168-.17-.168,0-.168l2.041-3.533h.34l1.7,4.543h0C840.62,214.344,840.62,214.344,840.45,214.344Zm-5.1-2.524-1.361-1.851c0-.168,0-.168.17-.168l.851-.841h0a.165.165,0,0,1,.17.168l.34,2.692v.168C835.346,211.989,835.346,211.989,835.346,211.82Z" transform="translate(-831.093 -195.5)" fill="#fff"/>
      </g>
    </g>
  </g>
</svg>
