<svg xmlns="http://www.w3.org/2000/svg" xmlns:xlink="http://www.w3.org/1999/xlink" width="78.571" height="78.571" viewBox="0 0 78.571 78.571">
  <defs>
    <clipPath id="clip-path">
      <rect id="Rectangle_308" data-name="Rectangle 308" width="78.571" height="78.571" fill="#fff" stroke="#707070" stroke-width="1"/>
    </clipPath>
    <linearGradient id="linear-gradient" x1="0.177" y1="0.02" x2="0.615" y2="0.982" gradientUnits="objectBoundingBox">
      <stop offset="0" stop-color="#1bd2b2"/>
      <stop offset="1" stop-color="#18bdbd"/>
    </linearGradient>
  </defs>
  <g id="Mask_Group_75" data-name="Mask Group 75" clip-path="url(#clip-path)">
    <g id="BANKERA_B_Green" data-name="BANKERA B Green" transform="translate(17.188 4.911)">
      <path id="Path_21630" data-name="Path 21630" d="M831.322,222.982l3.206-7.1c0-.229,0-.229.229-.229v.229l2.519,3.664c0,.229,0,.229-.229.229l-5.5,3.435h-.229Zm12.6,25.879-2.29-7.1v-.229h.229l2.29.458h0v7.1C843.917,249.089,843.917,249.089,843.917,248.86Zm0-7.557-2.061-.229a.224.224,0,0,0-.229-.229h0l2.29-5.038c0-.229,0-.229.229-.229V241.3Zm-12.6,21.756,6.183-3.206h.229l5.726,3.893v.229a.224.224,0,0,1-.229.229l-11.679-.687a.224.224,0,0,1-.229-.229Zm-.229-1.832v-8.245h.229l5.5,1.6c.229,0,.229,0,.229.229h0l-5.725,6.641h0C831.093,261.456,831.093,261.456,831.093,261.227Zm0-8.932v-.687h0l2.748-6.183c0-.229,0-.229.229-.229v.229l2.977,8.244v.229s0,.229-.229,0l-5.5-1.374Zm0-2.977v-6.183h.229l2.061,1.374v.229l-1.832,4.58h-.458Zm0-7.1v-1.145l5.5-4.351h.229v.229l-2.977,6.87a.224.224,0,0,1-.229.229h0l-2.519-1.6Zm0-2.29v-.458h0l2.977-7.328h.229l2.977,2.977h0v.229l-5.954,4.809h-.229Zm0-2.977V227.1a.224.224,0,0,1,.229-.229l.229.229,2.061,4.351v.229l-2.061,5.267-.229.229A.224.224,0,0,1,831.093,236.951Zm.229-11.909,7.1,2.061.229.229-.229.229L834.3,231h-.229v-.229l-2.977-5.5a.224.224,0,0,1,.229-.229Zm-.229-3.893v-6.183h.229l2.748.229h0v.229l-2.519,5.725-.229.229A.224.224,0,0,1,831.093,221.15Zm0-7.1v-.916l3.206-3.893h.229v.229l-.229,4.809v.229h0l-2.977-.229C831.093,214.279,831.093,214.279,831.093,214.05Zm0-2.29v-4.122h.229l2.748.458a.224.224,0,0,0,.229.229.224.224,0,0,1-.229.229l-2.748,3.435h0C831.093,211.989,831.093,211.989,831.093,211.76Zm0-5.038v-1.374h0l1.832-2.061.229-.229a.224.224,0,0,0,.229.229l1.145,4.122a.224.224,0,0,1-.229.229h0l-2.977-.687C831.093,206.951,831.093,206.951,831.093,206.722Zm0-2.748v-4.58l.229-.229a.224.224,0,0,0,.229.229l1.374,2.748v.229l-1.6,1.6v.229A.224.224,0,0,1,831.093,203.974Zm0-6.412V195.5h9.619a.224.224,0,0,1,.229.229v.229l-7.328,5.725h-.229l-2.29-4.122Zm10.993-1.6,1.145,5.725v.229h-8.7v-.229l7.1-5.725h.458Zm.687-.458h6.183v.229l-4.809,5.5a.225.225,0,0,1-.229.229l-.229-.229-1.145-5.5h0C842.544,195.5,842.544,195.5,842.773,195.5Zm-.458,7.328-7.1,4.58c0,.229,0,.229-.229,0h0l-1.145-4.58V202.6h8.474Zm16.26-6.183-6.87,3.893h-.229l-1.145-4.809V195.5h.229l7.786.916h.229Zm7.1,3.664-8.016,1.374c0,.229,0,0-.229,0v-.229l2.29-4.58a.224.224,0,0,1,.229-.229h.229l5.5,3.206v.458Zm4.581,6.641-4.809,4.809h-.229a.224.224,0,0,1-.229-.229l2.061-10.077h.229l2.978,5.267Zm.916,7.329-1.6,5.267a.224.224,0,0,1-.229.229h-.229l-4.122-6.412c-.229-.229-.229-.229,0-.458l5.267-5.038v-.229a.224.224,0,0,1,.229.229l.687,6.412Zm-6.641,10.993-1.6-4.809v-.229h.229l5.267.458a.224.224,0,0,1,.229.229v.229l-3.893,4.122s0,.229-.229,0Zm-1.145-.229-6.87-5.5v-.229h.229l5.5.916h0l1.6,4.58a.224.224,0,0,1-.229.229Zm-.458-5.725,1.6-5.267h.229L868.651,220v.229h-.229l-5.267-.458a.224.224,0,0,0-.229-.229Zm-.687-.916-2.748-7.329v-.229h.229l4.351,2.29v.229L862.7,218.4l-.229.229A.224.224,0,0,1,862.239,218.4Zm1.832-5.954-4.809-2.519h0V209.7l6.641-7.786h.229a.224.224,0,0,1,.229.229L864.3,212.447h-.229Zm-7.328.458-.687-2.519h0l.229-.229h1.6c.229,0,.229,0,.229.229v.229l-1.145,2.29v.229A.224.224,0,0,1,856.742,212.905Zm2.061-1.832,3.206,8.245h0l-.229.229-6.183-.916-.229-.229v-.229l1.6-3.664,1.6-3.435Zm0-2.061-1.6-6.412h0c0-.229,0-.229.229-.229l8.244-1.6a.224.224,0,0,1,.229.229v.229l-6.871,7.786H858.8Zm-.687.687h-2.061v-.229l.687-4.809h.458l1.145,4.809v.229Zm-5.038-3.206-1.145-4.809h0c0-.229,0-.229.229-.229l3.893.916v.229h0l-2.748,3.893c0,.229,0,.229-.229.229Zm3.206-2.519-.687,5.038a.224.224,0,0,1-.229.229h-.229l-1.6-1.6c-.229,0-.229-.229,0-.229l2.29-3.435c.229,0,.229-.229.229,0Zm.229-2.061L852.62,201h0v-.229l5.954-3.664a.224.224,0,0,1,.229.229v.229l-2.061,4.351Zm-6.641-5.725,1.145,4.58h0a.224.224,0,0,0-.229.229l-5.725.687h-.229v-.229l4.58-5.5h.229Zm-5.725,10.077-7.329,1.145h-.229c0-.229,0-.229.229-.229l6.412-4.351h.229a.224.224,0,0,0,.229.229l.458,2.977v.229Zm.458-2.977,3.664,2.748h.229a.224.224,0,0,1-.229.229h-3.206c-.229,0-.229,0-.229-.229l-.687-2.519a.224.224,0,0,1,.229-.229Zm-.229,5.5v10.535h-.458l-2.29-5.5h.229l2.061-5.038s.229-.229.229,0Zm5.954-2.519.916-3.435h.229l1.145,4.122h-.229v.229l-2.061-.687S850.1,206.264,850.33,206.264Zm-5.5-3.893,5.954-.916h0l.229.229-1.374,4.122v.229h-.229l-4.58-3.206a.224.224,0,0,0-.229-.229Zm10.306,16.718,6.87,5.5v.229c0,.229,0,.229-.229.229l-9.618-3.435h0v-.229l2.519-2.29Zm-3.893,2.977,1.374,4.809a.224.224,0,0,1-.229.229h-.229l-6.412-4.809v-.229a.224.224,0,0,1,.229-.229h5.038A.224.224,0,0,1,851.246,222.066Zm.916,0,10.305,3.664.229.229c0,.229,0,.229-.229.229l-8.931,1.6a.224.224,0,0,1-.229-.229l-1.374-5.267h0A.224.224,0,0,1,852.162,222.066Zm12.138,4.58,1.145,5.038a.224.224,0,0,1-.229.229h0l-10.306-3.435-.229-.229a.224.224,0,0,1,.229-.229l9.161-1.6Zm5.267,2.29-3.206,2.748h-.229c-.229,0-.229,0-.229-.229l-.916-4.351v-.229h.229l4.351,1.6.229.229A.224.224,0,0,1,869.567,228.936Zm4.352,4.809-7.1-1.374v-.458l3.435-2.748h.229l3.436,4.351c.229,0,.229,0,.229.229Zm2.977,7.787-3.435,1.145h-.229v-.229l1.6-6.412.229-.229.229.229,1.6,5.267Zm-1.145,9.161-3.893-.458a.224.224,0,0,0-.229-.229l.229-.229,4.58-6.412h.229c.229,0,.229,0,.229.229l-.916,7.1h-.229Zm-4.122,5.954-.229-5.725v-.229h.229l3.893.687h0v.229l-3.435,5.038a.224.224,0,0,0-.229.229Zm-8.016,5.038-.458-6.412v-.229h.229l7.1,2.748v.458l-6.641,3.435Zm-6.87,1.6-5.954-3.893c-.229,0-.229,0-.229-.229h.229l10.764,2.977h0v.229l-4.581.916Zm-11.451.458,2.748-5.038v-.229h.229l7.1,4.58a.229.229,0,1,1,0,.458l-9.847.687c-.229,0-.229,0-.229-.229Zm6.183-36.184-10.993-.687h-.229v-.229l4.122-4.58h.458l6.87,5.267v.229Zm-11.909-1.374-1.374-5.5v-.229s.229-.229.229,0l5.267,1.145a.224.224,0,0,1,.229.229v.229l-4.122,4.122c0,.229,0,.229-.229.229Zm4.351,6.87-5.267,1.832c-.229,0-.229,0-.229-.229h0l1.145-6.412v-.229h.229l4.122,4.809v.229Zm-3.435-5.5,11.222.687a.224.224,0,0,1,.229.229H851.7l-6.87,4.351H844.6l-4.351-5.038v-.229Zm12.6,1.145,1.374,3.893v.229a.224.224,0,0,0-.229.229h-7.786a.224.224,0,0,1-.229-.229V232.6l6.641-3.893c0-.229,0-.229.229-.229Zm.916,0,9.389,3.206c.229,0,.229,0,.229.229h-.229l-8.244.687h0l-1.374-3.893v-.229Zm10.534,4.351-4.351,3.435h-.229l-3.893-2.748v-.229h.229l8.016-.687h.229Zm-3.435,4.58,8.931,4.58v.229H869.8l-7.1-.916a.225.225,0,0,1-.229-.229l-1.6-3.435v-.229Zm1.832,5.038,6.641,6.642v.229h-.229l-7.558-1.832a.224.224,0,0,1-.229-.229l1.145-4.809v-.229A.224.224,0,0,1,862.926,242.677Zm-1.832,5.954,1.145,5.038c.229,0,0,0,0,.229h-.229l-4.58-2.748h0v-.229l3.435-2.29Zm-4.352,2.748,3.435,2.061a.224.224,0,0,1,.229.229c-.229,0-.229.229-.229,0l-7.1-1.145h0V252.3l3.435-.916Zm-6.641,1.6L848.04,257.1h-.229l-2.519-4.351v-.229c0-.229,0-.229.229-.229l4.352.458h.229Zm15.8-19.924,5.725,8.932v.229H871.4l-10.534-5.267-.229-.229h.229l4.809-3.893h0A.224.224,0,0,1,865.9,233.058Zm.916-.229,7.786,1.6v.229h0l-1.832,7.557h-.229l-5.955-9.161v-.229Zm5.5,10.764-1.374,5.725c0,.229,0,.229-.229.229h0l-7.1-7.1v-.229h.229l8.245,1.145a.224.224,0,0,1,.229.229Zm3.893-.916-4.122,5.725h-.229v-.229l1.145-4.58v-.229l3.206-.916h0C876.438,242.677,876.438,242.677,876.209,242.677Zm-14.2,5.725,7.786,1.832.229.229a.224.224,0,0,1-.229.229l-6.412,3.435h-.229l-.229-.229-1.145-5.267V248.4Zm8.7,2.748.458,6.183v.229h-.229l-6.871-2.977h-.229c0-.229,0-.229.229-.229l6.412-3.435h.229Zm-10.076,3.664-11.68,2.748h-.229v-.229l2.061-4.351a.224.224,0,0,1,.229-.229l9.618,1.6v.458Zm-29.084-30.688,5.725-3.664h.229v.229l1.374,5.725v.229h-.229l-7.1-2.29h-.229C831.322,224.127,831.322,224.127,831.551,224.127Zm5.954,10.306-2.977-2.748v-.229h0l4.122-3.435h.229v.229l-1.145,6.183h-.229Zm6.412-.458-2.519,6.183-.229.229-.229-.229-2.519-4.58h0c0-.229,0-.229.229-.229l5.038-1.6h.229Zm-5.725,2.29,2.519,4.58v.229h0l-6.183,3.206H834.3v-.229l3.435-7.786a.225.225,0,0,0,.229-.229Zm0,17.4,2.977-10.993h.229l2.748,8.932c0,.229,0,.229-.229.229l-5.5,2.061h-.229Zm5.038-.458-4.809,5.267h-.229a.224.224,0,0,1-.229-.229v-3.435l.229-.229,4.809-1.6c.229-.229.229,0,.229,0C843.46,252.982,843.46,253.211,843.231,253.211Zm4.352,5.038-2.29,4.351s-.229.229-.229,0h-.229v-8.932a.224.224,0,0,1,.229-.229v.229l2.519,4.351Zm-3.665,5.267-5.5-3.893a.224.224,0,0,1-.229-.229h0l5.725-6.183h.229v.229l.229,9.847c0,.229,0,.229-.229.229Zm-6.412-7.786v3.435c0,.229,0,.229-.229.229l-5.5,2.748c0,.229,0,0-.229,0v-.229l5.5-6.183a.224.224,0,0,1,.229-.229Zm25.192,6.183-13.054-3.664v-.229h0l12.825-2.977h.229l.229,6.641v.229Zm-27.94-16.947,5.725-2.977h.229v.229l-2.977,10.764v.229a.224.224,0,0,1-.229-.229l-2.748-7.786C834.528,244.967,834.757,244.967,834.757,244.967Zm9.16-37.787-2.519,5.954h-.229l-5.267-4.58V208.1l7.787-1.145h.229Zm-7.557,5.954-1.145.916h0a.224.224,0,0,1-.229-.229l.229-3.206v-.229c.229,0,.229,0,.229.229l.916,2.29Zm-.229-3.664,3.893,3.664v.229H839.8l-2.748-.458h0L835.9,209.7c-.229,0,0-.229,0-.229Zm4.58,4.809-2.519,4.351h-.458l-.687-4.809v-.229h.229l3.435.458v.229Zm2.977,6.87-5.267-1.374h0c-.229-.229-.229-.229,0-.229l2.748-4.809h.458l2.29,6.183h0C843.917,221.15,843.917,221.15,843.689,221.15Zm-6.871-3.435-1.832-2.519c0-.229,0-.229.229-.229l1.145-1.145h0a.224.224,0,0,1,.229.229l.458,3.664v.229C836.818,217.943,836.818,217.943,836.818,217.714Z" transform="translate(-831.093 -195.5)" fill="url(#linear-gradient)"/>
    </g>
  </g>
</svg>
