<svg xmlns="http://www.w3.org/2000/svg" xmlns:xlink="http://www.w3.org/1999/xlink" width="140" height="34" viewBox="0 0 140 34">
  <defs>
    <clipPath id="clip-path">
      <rect id="Rectangle_348" data-name="Rectangle 348" width="140" height="34" transform="translate(32 169)" fill="#fff" stroke="#707070" stroke-width="1"/>
    </clipPath>
  </defs>
  <g id="Mask_Group_92" data-name="Mask Group 92" transform="translate(-32 -169)" clip-path="url(#clip-path)">
    <g id="Pervesk_Wordmark_Blue" data-name="Pervesk Wordmark Blue" transform="translate(32 172.719)">
      <g id="abc2de25-ea0f-41e1-8f69-b429af3e3eed">
        <path id="Path_21632" data-name="Path 21632" d="M783.652,382.241h7.164a8.084,8.084,0,0,1,2.57.387,5.519,5.519,0,0,1,1.962,1.1,4.873,4.873,0,0,1,1.262,1.819,6.538,6.538,0,0,1,.449,2.513,6.206,6.206,0,0,1-.46,2.439,5.533,5.533,0,0,1-1.268,1.871,5.342,5.342,0,0,1-1.922,1.183,7.105,7.105,0,0,1-2.462.409H788.2v5.845h-4.549Zm6.772,8.063a1.916,1.916,0,0,0,1.5-.609,2.234,2.234,0,0,0,.569-1.552,2.35,2.35,0,0,0-.529-1.6,1.951,1.951,0,0,0-1.552-.608H788.2V390.3Z" transform="translate(-783.652 -373.547)" fill="#003784"/>
        <path id="Path_21633" data-name="Path 21633" d="M854.645,382.269h12.64v4.026h-7.96v2.712h6.556v3.8h-6.573v3h8.529v4.026H854.645Z" transform="translate(-839.157 -373.57)" fill="#003784"/>
        <path id="Path_21634" data-name="Path 21634" d="M926.368,382.266h7.266a8.412,8.412,0,0,1,2.57.364,5.506,5.506,0,0,1,1.962,1.1,4.86,4.86,0,0,1,1.268,1.78,6.55,6.55,0,0,1,.444,2.5,5.813,5.813,0,0,1-.762,3.019,5.958,5.958,0,0,1-2.03,2.041l3.77,6.738h-5l-2.979-5.953h-1.95v5.976h-4.548Zm6.823,7.926a2.046,2.046,0,0,0,1.5-.569,2.013,2.013,0,0,0,.569-1.512,2.195,2.195,0,0,0-.569-1.581,2.045,2.045,0,0,0-1.552-.569h-2.218V390.2Z" transform="translate(-895.232 -373.567)" fill="#003784"/>
        <path id="Path_21635" data-name="Path 21635" d="M1093.477,382.269h12.645v4.026h-7.96v2.712h6.562v3.8h-6.584v3h8.529v4.026h-13.191Z" transform="translate(-1025.884 -373.57)" fill="#003784"/>
        <path id="Path_21636" data-name="Path 21636" d="M1164.5,392.562a7.571,7.571,0,0,0,1.922,1.342,5.647,5.647,0,0,0,2.627.608,3.9,3.9,0,0,0,.711-.068,2.094,2.094,0,0,0,.66-.222,1.418,1.418,0,0,0,.478-.421,1.2,1.2,0,0,0,.182-.688,1.319,1.319,0,0,0-.7-1.137,9.417,9.417,0,0,0-2.041-.893l-1-.313a11.78,11.78,0,0,1-1.649-.682,7.023,7.023,0,0,1-1.49-1.018,4.755,4.755,0,0,1-1.063-1.393,4.105,4.105,0,0,1-.409-1.888,5.589,5.589,0,0,1,.449-2.274,5.176,5.176,0,0,1,1.319-1.791,6.028,6.028,0,0,1,2.121-1.211,8.978,8.978,0,0,1,2.922-.438,10.558,10.558,0,0,1,4.19.819,7.51,7.51,0,0,1,1.342.733,5.366,5.366,0,0,1,.842.716l-2.371,3a9.553,9.553,0,0,0-1.922-1.137,5.117,5.117,0,0,0-2.052-.438,3.2,3.2,0,0,0-.688.08,2.272,2.272,0,0,0-.614.239,1.247,1.247,0,0,0-.449.409,1.067,1.067,0,0,0-.171.62,1.138,1.138,0,0,0,.2.682,1.746,1.746,0,0,0,.534.5,4.2,4.2,0,0,0,.831.381l1.04.358.847.262c.6.193,1.2.421,1.814.671a5.94,5.94,0,0,1,1.66,1.029,5.063,5.063,0,0,1,1.205,1.615,5.291,5.291,0,0,1,.472,2.36,4.6,4.6,0,0,1-.568,2.24,5.587,5.587,0,0,1-1.518,1.768,7.182,7.182,0,0,1-2.274,1.137,9.238,9.238,0,0,1-2.78.409,12.132,12.132,0,0,1-4.412-.7,9.232,9.232,0,0,1-3.014-1.882Z" transform="translate(-1079.208 -371.854)" fill="#003784"/>
        <path id="Path_21637" data-name="Path 21637" d="M1238,382.269h4.662v6.584l5.242-6.584h5.453l-5.851,6.766,6.772,10.8h-5.669l-4.293-7.107-1.66,1.945v5.163h-4.662Z" transform="translate(-1138.87 -373.57)" fill="#003784"/>
        <path id="Path_21638" data-name="Path 21638" d="M1050.908,342.394h-4.975l-7.238,19.474,2.4,6.789Z" transform="translate(-983.053 -342.394)" fill="#003885"/>
        <path id="Path_21639" data-name="Path 21639" d="M996.726,382.243h5.083l6.215,17.569H1003.1l-6.7-17.569" transform="translate(-949.983 -373.55)" fill="#b4dbbe"/>
      </g>
    </g>
  </g>
</svg>
