<svg xmlns="http://www.w3.org/2000/svg" xmlns:xlink="http://www.w3.org/1999/xlink" width="140" height="34" viewBox="0 0 140 34">
  <defs>
    <clipPath id="clip-path">
      <rect id="Rectangle_347" data-name="Rectangle 347" width="140" height="34" transform="translate(32 120)" fill="#fff" stroke="#707070" stroke-width="1"/>
    </clipPath>
  </defs>
  <g id="Mask_Group_91" data-name="Mask Group 91" transform="translate(-32 -120)" clip-path="url(#clip-path)">
    <g id="SC_Full_Horizontal_Blue" data-name="SC Full Horizontal Blue" transform="translate(32 120.941)">
      <g id="Group_11371" data-name="Group 11371">
        <path id="Path_21649" data-name="Path 21649" d="M-2164.377,948.614l-.116.049a9.2,9.2,0,0,1-1.956.475l-.066.016v.066a12.861,12.861,0,0,1-.68,3v.017l.73,3.306.1-.179a14.359,14.359,0,0,0,1.973-6.613Z" transform="translate(2194.482 -930.704)" fill="#102d6f"/>
        <path id="Path_21650" data-name="Path 21650" d="M-2176.808,927.857l-.1.082.116.065a12.714,12.714,0,0,1,3.315,2.685l.033.032h2.635l-.1-.131a14.83,14.83,0,0,0-4.31-4.043l-.066-.032-.049.049A12.515,12.515,0,0,1-2176.808,927.857Z" transform="translate(2198.294 -921.864)" fill="#102d6f"/>
        <path id="Path_21651" data-name="Path 21651" d="M-2189.374,929.028h0a10.31,10.31,0,0,0-3.415-2.521c-.215-.1-.48-.213-.795-.329-.2-.082-.415-.131-.614-.2l-.2-.066c-.282-.082-.563-.147-.829-.2l-.166-.033c-.214-.033-.447-.082-.663-.1l-.679-.065-.531,1.113a3.209,3.209,0,0,1-1.442,1.277,3.31,3.31,0,0,1-1.973.229,16.825,16.825,0,0,1-2.221-.818,13.682,13.682,0,0,1-1.807-.884,3.284,3.284,0,0,1-1.16-1.784,3.181,3.181,0,0,1,.231-2.111,3.17,3.17,0,0,1,1.094-1.277,3.3,3.3,0,0,1,1.543-.557l11.852.049a8.512,8.512,0,0,1-6.266,2.75l-5.52-.016-.017,1.915,5.553.017a10.486,10.486,0,0,0,9-5.138l.877-1.441-15.5-.084h-.033a5.141,5.141,0,0,0-4.823,5.45h0a5.2,5.2,0,0,0,.132.853,5.2,5.2,0,0,0,1.84,2.865,11.211,11.211,0,0,0,2.239,1.129,18.5,18.5,0,0,0,2.618.934,5.231,5.231,0,0,0,3.133-.377,5.233,5.233,0,0,0,2.321-2.031h.016a5.767,5.767,0,0,1,.647.147h.017c.215.065.43.131.663.213.182.066.381.164.63.278a8.464,8.464,0,0,1,3.962,3.732,8.6,8.6,0,0,1,.961,3.995,7.888,7.888,0,0,1-.3,2.079l-.017.049,1.492,6.875-3.781,2.587a4.417,4.417,0,0,1-1.044-.033,4.261,4.261,0,0,1-1.21-.36,4.482,4.482,0,0,1-1.309-.934,4.267,4.267,0,0,1-.862-1.342l-.249-.655-.7.049a8.6,8.6,0,0,1-2.138-.131,8.155,8.155,0,0,1-2.039-.655,8.358,8.358,0,0,1-3.862-3.6,8.386,8.386,0,0,1-1.012-3.192,15.355,15.355,0,0,1,.249-3.143l.017-.131-1.773-.8-.05.179c0,.033-.148.557-.215.8a3.105,3.105,0,0,1-.547-.148,3.56,3.56,0,0,1-1.126-.72,3.447,3.447,0,0,1-.947-1.751,3.261,3.261,0,0,1,.066-1.44l9.548,4.436a2.185,2.185,0,0,0-.149.278l-.049.115a3.713,3.713,0,0,0,1.855,4.845l.117.049a3.788,3.788,0,0,0,2.437.179,6.992,6.992,0,0,0,.7-.262l1.228,5.73.629.131a5.083,5.083,0,0,1,1.509.524,2.5,2.5,0,0,1,.646.54l.1.115,1.575-1.179-.116-.131a4.241,4.241,0,0,0-1.21-1.016,5.892,5.892,0,0,0-1.457-.588l-1.178-5.516a5.814,5.814,0,0,0-1.542-2.914,10.033,10.033,0,0,0-3.083-2.112l-12.482-5.8-.614,1.211-.017.049a4.9,4.9,0,0,0-.4,3.077,5.222,5.222,0,0,0,3.3,3.913,4.93,4.93,0,0,0,.995.246,10.442,10.442,0,0,0,1.276,5.32,10.326,10.326,0,0,0,4.741,4.4,10.854,10.854,0,0,0,2.5.8,10.464,10.464,0,0,0,1.939.179,6.152,6.152,0,0,0,.962,1.326,6.384,6.384,0,0,0,1.889,1.359,5.761,5.761,0,0,0,1.758.524,7.621,7.621,0,0,0,.877.065,6.427,6.427,0,0,0,.961-.065l.232-.033,5.221-3.584-1.641-7.694.083-.475a10.266,10.266,0,0,0-1.011-6.532.78.78,0,0,1-.066-.245h8.337a6.057,6.057,0,0,1-1.624,1.506,8.108,8.108,0,0,1-3.231,1.244l-.132.016v1.932l.181-.033a10.478,10.478,0,0,0,7.575-5.025l.862-1.44Zm-9.365,6.123.05-.1a7.183,7.183,0,0,1,1.705,1.277,4.933,4.933,0,0,1,.665.917,1.8,1.8,0,0,1-.48.212,1.649,1.649,0,0,1-1.144-.115,1.653,1.653,0,0,1-.8-2.193Z" transform="translate(2212.103 -918.762)" fill="#102d6f"/>
        <path id="Path_21652" data-name="Path 21652" d="M-2195.282,961.561a7.862,7.862,0,0,1-2.2-1.637l-.181-.2h-.033a13.271,13.271,0,0,1-4.824-1.162l-.083-.033a12.65,12.65,0,0,1-6.614-7.155,12.826,12.826,0,0,1-.746-3.536v-.049l-.049-.017a7.06,7.06,0,0,1-1.674-1.194,2.172,2.172,0,0,1-.265-.278l-.118-.147-.016.2a14.71,14.71,0,0,0,8.456,14.028l.1.049a14.968,14.968,0,0,0,6.349,1.408,14.293,14.293,0,0,0,1.873-.115l.266-.032Z" transform="translate(2212.11 -929.721)" fill="#102d6f"/>
      </g>
      <g id="Group_11372" data-name="Group 11372" transform="translate(38.864 10.454)">
        <path id="Path_21653" data-name="Path 21653" d="M-2109.08,945.008a3.525,3.525,0,0,0-1.044-2.615,3.525,3.525,0,0,0-2.576-1.014,3.869,3.869,0,0,0-2.827,1.067,3.6,3.6,0,0,0-1.062,2.7,3.648,3.648,0,0,0,1.08,2.7,4.293,4.293,0,0,0,5.495.142l-1.368-1.352a1.374,1.374,0,0,1-1.242.533,1.735,1.735,0,0,1-1.838-1.281h5.333A5.1,5.1,0,0,0-2109.08,945.008Zm-5.4-.569a1.639,1.639,0,0,1,1.729-1.352,1.477,1.477,0,0,1,1.567,1.352Z" transform="translate(2135.759 -938.263)" fill="#102d6f"/>
        <path id="Path_21654" data-name="Path 21654" d="M-2141.041,936.885a3.348,3.348,0,0,1,1.622,2.686h-2.181c-.144-1.014-.81-1.512-1.963-1.512-1.1,0-1.8.463-1.8,1.245,0,.658.468.978,1.458,1.175l1.28.249c2.125.427,3.153,1.245,3.153,2.9a2.857,2.857,0,0,1-1.135,2.366,4.737,4.737,0,0,1-2.991.89,5.138,5.138,0,0,1-3.153-.941,3.5,3.5,0,0,1-1.387-2.651h2.2c.161,1.031,1.081,1.69,2.468,1.69,1.1,0,1.711-.392,1.711-1.1,0-.552-.432-.89-1.3-1.05l-1.693-.32c-1.963-.357-2.954-1.406-2.954-3.024a2.969,2.969,0,0,1,1.081-2.384,4.4,4.4,0,0,1,2.882-.908A5.606,5.606,0,0,1-2141.041,936.885Z" transform="translate(2148.14 -936.187)" fill="#102d6f"/>
        <path id="Path_21655" data-name="Path 21655" d="M-2124.631,942.495a3.882,3.882,0,0,1,0,5.337,3.4,3.4,0,0,1-2.558,1.085,3.841,3.841,0,0,1-2.071-.569v3.914h-2.126V941.552h2.125v.427a3.842,3.842,0,0,1,2.071-.569A3.392,3.392,0,0,1-2124.631,942.495Zm-1.585,4.074a2.048,2.048,0,0,0,0-2.811,1.72,1.72,0,0,0-1.351-.6,2.047,2.047,0,0,0-1.73.836V946.3a2.1,2.1,0,0,0,1.73.836,1.78,1.78,0,0,0,1.351-.57Z" transform="translate(2141.564 -938.276)" fill="#102d6f"/>
        <path id="Path_21656" data-name="Path 21656" d="M-2095.6,947.821c-.09.089-.18.178-.288.266a4.152,4.152,0,0,1-5.279-.231,3.615,3.615,0,0,1-1.135-2.7,3.544,3.544,0,0,1,1.135-2.686,4.124,4.124,0,0,1,5.279-.249c.09.071.18.16.269.231l-1.422,1.405a1.523,1.523,0,0,0-1.333-.64,1.915,1.915,0,0,0-1.837,1.993h0a1.918,1.918,0,0,0,1.837,1.814,1.558,1.558,0,0,0,1.351-.64Z" transform="translate(2130.149 -938.264)" fill="#102d6f"/>
        <path id="Path_21657" data-name="Path 21657" d="M-2077.28,942.349a3.682,3.682,0,0,1,2.557-.941V943.4a3.548,3.548,0,0,0-2.557,1.032v4.3h-2.126v-7.22h2.126Z" transform="translate(2121.164 -938.275)" fill="#102d6f"/>
        <path id="Path_21658" data-name="Path 21658" d="M-2063.752,942.448a3.52,3.52,0,0,1,1.117,2.7,3.6,3.6,0,0,1-1.117,2.74,3.775,3.775,0,0,1-2.775,1.085,3.856,3.856,0,0,1-2.81-1.085,3.62,3.62,0,0,1-1.117-2.74,3.518,3.518,0,0,1,1.117-2.7,4.187,4.187,0,0,1,5.585,0Zm-.991,2.7a1.782,1.782,0,0,0-1.8-1.9,1.8,1.8,0,0,0-1.841,1.761c0,.048,0,.095,0,.142a1.835,1.835,0,0,0,1.838,1.957A1.818,1.818,0,0,0-2064.744,945.152Z" transform="translate(2117.652 -938.265)" fill="#102d6f"/>
        <path id="Path_21659" data-name="Path 21659" d="M-2046.535,945.293l-.432.427a5.029,5.029,0,0,1-3.406,1.192,5.309,5.309,0,0,1-3.854-1.512,5.1,5.1,0,0,1-1.549-3.825,5.256,5.256,0,0,1,5.16-5.355h0c.082,0,.164,0,.245,0a5.02,5.02,0,0,1,3.4,1.192c.054.053.108.089.162.142l-1.531,1.512a2.834,2.834,0,0,0-2.054-.765,3.062,3.062,0,0,0-2.289.908,3.511,3.511,0,0,0,0,4.7,3.063,3.063,0,0,0,2.289.907,2.7,2.7,0,0,0,2.288-1.067Z" transform="translate(2111.891 -936.199)" fill="#102d6f"/>
        <path id="Path_21660" data-name="Path 21660" d="M-2084.827,946.735a6.417,6.417,0,0,1-1.963.338,2.85,2.85,0,0,1-2.936-3.113v-6.244l2.108-1.139v3.042h2.647v1.762h-2.647v2.562c0,.8.432,1.192,1.279,1.192a4.645,4.645,0,0,0,1.243-.195Z" transform="translate(2125.215 -936.343)" fill="#102d6f"/>
        <path id="Path_21661" data-name="Path 21661" d="M-2032.471,942.448a3.521,3.521,0,0,1,1.118,2.7,3.6,3.6,0,0,1-1.118,2.74,3.773,3.773,0,0,1-2.774,1.085,3.854,3.854,0,0,1-2.81-1.085,3.623,3.623,0,0,1-1.118-2.74,3.519,3.519,0,0,1,1.118-2.7,4.186,4.186,0,0,1,5.584,0Zm-.991,2.7a1.782,1.782,0,0,0-1.8-1.9,1.8,1.8,0,0,0-1.841,1.761h0c0,.048,0,.095,0,.142a1.835,1.835,0,0,0,1.837,1.957A1.818,1.818,0,0,0-2033.461,945.152Z" transform="translate(2105.375 -938.265)" fill="#102d6f"/>
        <path id="Path_21662" data-name="Path 21662" d="M-2021.589,938.653h-2.161v-2.135h2.161Zm-.018,8.166h-2.126V939.6h2.126Z" transform="translate(2099.321 -936.319)" fill="#102d6f"/>
        <path id="Path_21663" data-name="Path 21663" d="M-2010.54,942.194a3.554,3.554,0,0,1,.883,2.526v3.967h-2.126V944.9c0-1.138-.576-1.761-1.567-1.761a2.127,2.127,0,0,0-1.6.909v4.642h-2.125v-7.224h2.125v.515a3.3,3.3,0,0,1,2.09-.746A3.121,3.121,0,0,1-2010.54,942.194Z" transform="translate(2096.703 -938.206)" fill="#102d6f"/>
      </g>
    </g>
  </g>
</svg>
