<svg xmlns="http://www.w3.org/2000/svg" xmlns:xlink="http://www.w3.org/1999/xlink" width="140" height="34" viewBox="0 0 140 34">
  <defs>
    <clipPath id="clip-path">
      <rect id="Rectangle_349" data-name="Rectangle 349" width="140" height="34" transform="translate(32 77)" fill="#fff" stroke="#707070" stroke-width="1"/>
    </clipPath>
  </defs>
  <g id="Mask_Group_93" data-name="Mask Group 93" transform="translate(-32 -77)" clip-path="url(#clip-path)">
    <g id="BANKERA_Wordmark_Green" data-name="BANKERA Wordmark Green" transform="translate(32 85.862)">
      <path id="Path_2" data-name="Path 2" d="M653.392,768.682a3.639,3.639,0,0,0,2.2-3.532c0-2.523-2.067-4.163-5.554-4.163h-8.009v15.768h8.526c3.617,0,5.813-1.766,5.813-4.415A3.648,3.648,0,0,0,653.392,768.682Zm-7.363-4.415h3.358q2.325,0,2.325,1.514c0,1.009-.775,1.64-2.325,1.64h-3.358Zm0,9.209v-3.027h4c1.55,0,2.325.5,2.325,1.388,0,1.009-.775,1.64-2.325,1.64Zm25.318.631,1.033,2.649h4.263L669.8,760.861h-3.746L659.2,776.756h4.263l1.033-2.649Zm-1.421-3.406h-4.133l2.067-5.172Zm25.706-9.713h-4v8.956l-7.751-8.956h-3.1v15.768h4v-8.578l7.751,8.578h3.1Zm11.626,9.965,4.521,5.8h4.909l-6.717-8.83,6.2-6.938h-4.78l-6.459,7.19v-7.19h-4v15.768h4V773.6Zm17.31-6.56h8.138v-3.406H720.563v15.768h12.143V773.35h-8.138v-2.775h7.1v-3.279h-7.1Zm19.377,7.821,3.488,4.542h4.779l-4.133-5.3a5.309,5.309,0,0,0,3.1-4.92c0-3.406-2.713-5.55-6.717-5.55h-6.976v15.768h4v-4.542Zm-2.455-3.532v-4.163h2.971c1.55,0,2.713.757,2.713,2.018s-1.163,2.145-2.713,2.145Zm26.094,5.424,1.034,2.649h4.263l-6.846-15.895h-3.746l-6.976,15.895H759.7l1.034-2.649Zm-1.421-3.406h-4.133l2.067-5.172Z" transform="translate(-642.024 -760.861)" fill="#18bdbd"/>
    </g>
  </g>
</svg>
