<svg xmlns="http://www.w3.org/2000/svg" xmlns:xlink="http://www.w3.org/1999/xlink" width="148" height="148" viewBox="0 0 148 148">
  <defs>
    <clipPath id="clip-path">
      <rect id="Rectangle_326" data-name="Rectangle 326" width="148" height="148" transform="translate(14333 -436)" fill="#fff" stroke="#707070" stroke-width="1"/>
    </clipPath>
  </defs>
  <g id="SC_files" data-name="SC files" transform="translate(-14333 436)" clip-path="url(#clip-path)">
    <g id="Group_11386" data-name="Group 11386" transform="translate(-796.894 407.68)">
      <g id="Group_11380" data-name="Group 11380" transform="translate(15138 -839.68)">
        <path id="Rectangle_322" data-name="Rectangle 322" d="M-39.586-180.9H57.5c2.438,0,3.745,2.5,2.919,5.575L43.244-111.216c-.826,3.079-3.469,5.575-5.906,5.575H-59.752c-2.436,0-3.743-2.5-2.919-5.575l17.179-64.109C-44.668-178.4-42.023-180.9-39.586-180.9Z" transform="translate(71.706 244.084)" fill="#001a57"/>
        <g id="Group_11377" data-name="Group 11377" transform="translate(10.903 0)">
          <rect id="Rectangle_323" data-name="Rectangle 323" width="72.877" height="90.269" rx="3.455" transform="translate(42.42 0) rotate(28.03)" fill="#dfe2e6" opacity="0.5"/>
          <rect id="Rectangle_324" data-name="Rectangle 324" width="55.393" height="5.213" rx="2.607" transform="translate(41.928 19.526) rotate(28.03)" fill="#707070"/>
          <rect id="Rectangle_325" data-name="Rectangle 325" width="55.393" height="5.213" rx="2.607" transform="translate(35.497 31.606) rotate(28.03)" fill="#707070"/>
        </g>
        <path id="Path_21668" data-name="Path 21668" d="M46.8-173.285v69.241c0,3.329-2.126,6.019-4.759,6.019H-62.831c-2.633,0-4.759-2.69-4.759-6.019v-69.241c0-3.311,2.126-6.019,4.759-6.019h7.994l4.383-6.79a7.5,7.5,0,0,1,6.32-3.461h26.222a7.555,7.555,0,0,1,5.455,2.333l7.543,7.919h46.95C44.67-179.3,46.8-176.6,46.8-173.285Z" transform="translate(67.59 237.581)" fill="#102d6f"/>
      </g>
      <g id="SC_Head_Blue" data-name="SC Head Blue" transform="translate(15173.912 -763.725)">
        <g id="Group_11373" data-name="Group 11373">
          <path id="Path_21664" data-name="Path 21664" d="M480.609,309l-.157.07a11.923,11.923,0,0,1-2.644.676l-.09.023v.093a19.09,19.09,0,0,1-.919,4.265v.023l.986,4.708.134-.256a21.259,21.259,0,0,0,2.666-9.415Z" transform="translate(-439.896 -283.504)" fill="#fff"/>
          <path id="Path_21665" data-name="Path 21665" d="M441.334,229.911l-.134.117.157.093a17.4,17.4,0,0,1,4.481,3.822l.045.047h3.562l-.134-.186a20.515,20.515,0,0,0-5.825-5.757L443.4,228l-.067.07A17.029,17.029,0,0,1,441.334,229.911Z" transform="translate(-412.272 -221.381)" fill="#fff"/>
          <path id="Path_21666" data-name="Path 21666" d="M342.964,214.213h0a14.009,14.009,0,0,0-4.615-3.589c-.291-.14-.65-.3-1.075-.466-.269-.117-.56-.186-.829-.28l-.269-.093a11.149,11.149,0,0,0-1.12-.28l-.224-.047c-.291-.047-.6-.117-.9-.14l-.919-.093-.717,1.585a4.412,4.412,0,0,1-1.949,1.818,4.266,4.266,0,0,1-2.666.326,21.961,21.961,0,0,1-3-1.165,18.239,18.239,0,0,1-2.442-1.259,4.706,4.706,0,0,1-1.568-2.54,4.766,4.766,0,0,1,.314-3.006,4.466,4.466,0,0,1,1.479-1.818,4.338,4.338,0,0,1,2.084-.792l16.02.07a11.409,11.409,0,0,1-2.778,2.331,10.949,10.949,0,0,1-5.691,1.585l-7.461-.023-.022,2.727,7.506.023a13.9,13.9,0,0,0,6.99-1.958,14.738,14.738,0,0,0,5.175-5.36l1.187-2.051-20.949-.116h-.045a6.944,6.944,0,0,0-3.5,1.258,7.4,7.4,0,0,0-2.375,2.913,7.536,7.536,0,0,0-.47,4.8,7.445,7.445,0,0,0,2.487,4.078,14.9,14.9,0,0,0,3.025,1.608,24.277,24.277,0,0,0,3.54,1.328,6.743,6.743,0,0,0,4.234-.536,7.2,7.2,0,0,0,3.137-2.89h.022a7.7,7.7,0,0,1,.874.21h.022c.291.093.583.186.9.3.246.093.515.233.851.4a11.71,11.71,0,0,1,5.355,5.314,12.773,12.773,0,0,1,1.3,5.687,11.748,11.748,0,0,1-.4,2.96l-.022.07,2.016,9.788-5.108,3.682a5.655,5.655,0,0,1-1.412-.047,5.536,5.536,0,0,1-1.636-.513,5.9,5.9,0,0,1-2.935-3.239l-.336-.932-.941.07a11.038,11.038,0,0,1-2.89-.186,10.657,10.657,0,0,1-2.756-.932,11.557,11.557,0,0,1-5.22-5.127,12.391,12.391,0,0,1-1.367-4.545,22.975,22.975,0,0,1,.336-4.475l.022-.186-2.4-1.142-.067.256c0,.047-.2.792-.291,1.142a4.007,4.007,0,0,1-.739-.21,4.8,4.8,0,0,1-1.524-1.025,4.985,4.985,0,0,1-1.277-2.494,4.9,4.9,0,0,1,.09-2.051l12.905,6.316a3.1,3.1,0,0,0-.2.4l-.067.163a5.421,5.421,0,0,0-.112,3.892,5.176,5.176,0,0,0,2.621,3.006l.157.07a4.878,4.878,0,0,0,3.294.256,8.949,8.949,0,0,0,.941-.373l1.658,8.157.851.186a6.657,6.657,0,0,1,2.039.746,3.45,3.45,0,0,1,.874.769l.134.163,2.129-1.678-.157-.186a5.805,5.805,0,0,0-1.636-1.445,7.719,7.719,0,0,0-1.972-.839l-1.591-7.854a8.437,8.437,0,0,0-2.084-4.148,13.578,13.578,0,0,0-4.167-3.006l-16.871-8.25L312.941,213l-.022.07a7.535,7.535,0,0,0,1.479,8.32,7,7,0,0,0,2.442,1.631,6.354,6.354,0,0,0,1.344.35,15.513,15.513,0,0,0,1.725,7.574,14.147,14.147,0,0,0,9.791,7.411,13.546,13.546,0,0,0,2.621.256,8.768,8.768,0,0,0,1.3,1.888,8.653,8.653,0,0,0,2.554,1.934,7.476,7.476,0,0,0,2.375.746,9.806,9.806,0,0,0,1.188.093,8.309,8.309,0,0,0,1.3-.093l.314-.047,7.058-5.1-2.218-10.954.112-.676a15.3,15.3,0,0,0-1.367-9.3,1.171,1.171,0,0,1-.09-.35h11.27a8.345,8.345,0,0,1-2.2,2.144,10.629,10.629,0,0,1-4.369,1.771l-.179.023v2.75l.246-.047a13.552,13.552,0,0,0,5.736-2.237,14.344,14.344,0,0,0,4.5-4.917l1.165-2.051ZM330.3,222.929l.067-.14a9.772,9.772,0,0,1,2.308,1.818,7.058,7.058,0,0,1,.9,1.305,2.366,2.366,0,0,1-.65.3,2.128,2.128,0,0,1-1.546-.163,2.232,2.232,0,0,1-1.143-1.305A2.335,2.335,0,0,1,330.3,222.929Z" transform="translate(-312.221 -199.6)" fill="#fff"/>
          <path id="Path_21667" data-name="Path 21667" d="M334.854,321.931a10.68,10.68,0,0,1-2.98-2.331l-.247-.28h-.045a17.2,17.2,0,0,1-6.52-1.655l-.112-.047a17.679,17.679,0,0,1-8.939-10.185A19.089,19.089,0,0,1,315,302.4v-.07l-.067-.023a9.574,9.574,0,0,1-2.263-1.7,2.945,2.945,0,0,1-.358-.4l-.179-.21-.022.28a21.887,21.887,0,0,0,1.165,8.157,20.684,20.684,0,0,0,10.261,11.816l.134.07a19.359,19.359,0,0,0,8.581,2,18.465,18.465,0,0,0,2.532-.163l.358-.047Z" transform="translate(-312.087 -276.601)" fill="#fff"/>
        </g>
      </g>
    </g>
  </g>
</svg>
